<svg width="39" height="48" viewBox="0 0 39 48" fill="none" xmlns="http://www.w3.org/2000/svg">
<path fill-rule="evenodd" clip-rule="evenodd" d="M28.4094 0.842037C26.4327 1.03254 24.112 2.17748 22.4837 3.76553C20.7418 5.46446 19.5647 7.82613 19.3584 10.0361C19.3267 10.3755 19.3412 11.1831 19.3831 11.4087L19.4115 11.5611L19.6076 11.589C19.8939 11.6296 20.5985 11.6052 20.9604 11.5421C22.3416 11.3013 23.7799 10.6215 25.0654 9.60212C25.4541 9.29389 26.1728 8.56649 26.5267 8.1232C27.0417 7.47799 27.479 6.78849 27.832 6.06498C28.3461 5.01124 28.6508 4.01439 28.8173 2.84043C28.8655 2.50115 28.8877 1.44398 28.8524 1.17099C28.8036 0.794058 28.8129 0.816081 28.7048 0.819603C28.6527 0.821295 28.5198 0.831403 28.4094 0.842037ZM27.5239 12.1526C26.9916 12.184 26.2697 12.3004 25.6372 12.4567C24.8044 12.6625 24.1795 12.8749 22.7099 13.4516C21.5176 13.9194 21.1478 14.0498 20.6682 14.1712C20.0597 14.3253 19.5259 14.3214 18.8679 14.1583C18.402 14.0427 18.0616 13.9217 16.837 13.4362C15.6587 12.9689 15.229 12.8134 14.6714 12.6521C13.3136 12.2594 12.2301 12.172 10.8637 12.345C9.39042 12.5316 7.96492 13.0199 6.67867 13.7785C4.178 15.2535 2.3098 17.6357 1.3039 20.632C0.560948 22.8451 0.300835 25.3538 0.528474 28.1108C0.736926 30.6352 1.35405 33.3148 2.31133 35.852C2.9258 37.4806 3.75679 39.1962 4.58212 40.5402C5.33668 41.7689 6.85752 43.8318 7.80238 44.9082C9.5599 46.9104 11.1899 47.7631 13.0112 47.6332C13.9702 47.5647 14.5783 47.3938 16.0544 46.7779C17.0067 46.3805 17.4044 46.2319 17.897 46.0895C19.3862 45.6588 21.069 45.6209 22.527 45.9853C23.1371 46.1378 23.4883 46.2648 24.528 46.709C25.8176 47.2598 26.3116 47.4155 27.1237 47.527C27.4842 47.5766 28.2573 47.5958 28.5644 47.5629C29.9836 47.4108 31.2787 46.7062 32.5671 45.3851C33.3533 44.5789 34.1487 43.5654 35.2924 41.9123C36.5532 40.0899 37.676 37.8653 38.3741 35.8063C38.5862 35.1805 38.5876 35.1746 38.5196 35.1535C38.2894 35.0823 37.4085 34.5989 36.9459 34.2899C34.303 32.5244 32.7073 29.9791 32.3625 26.9788C32.0756 24.4832 32.6261 22.1096 33.9614 20.0837C34.7355 18.9094 35.8541 17.7896 37.0546 16.9873C37.2086 16.8843 37.3347 16.789 37.3347 16.7754C37.3347 16.7367 37.0208 16.3166 36.7482 15.9905C34.8211 13.6852 32.0973 12.3605 28.8731 12.1603C28.526 12.1388 27.8259 12.1348 27.5239 12.1526Z" fill="#2D2D2D"/>
</svg>
