<svg width="215" height="35" viewBox="0 0 215 35" fill="none" xmlns="http://www.w3.org/2000/svg">
<path fill-rule="evenodd" clip-rule="evenodd" d="M174.535 12.4076V0.761113L174.538 0.758496C174.902 0.640722 179.699 0.604082 180.416 0.703535C180.516 1.05947 180.534 33.7011 180.427 34.1905H174.556C174.547 33.8128 174.548 33.4379 174.549 33.0529V33.0516C174.55 32.69 174.551 32.3194 174.543 31.9293L174.501 31.9699L174.474 31.995L174.421 32.0443C174.361 32.1 174.315 32.1421 174.274 32.1884C172.908 33.7351 171.185 34.5438 169.128 34.6328C167.139 34.7192 165.229 34.3868 163.454 33.4499C161.329 32.3297 159.929 30.5762 159.047 28.3751C158.364 26.6713 158.076 24.889 158.016 23.0674C157.945 20.9397 158.162 18.8433 158.866 16.8176C159.581 14.7709 160.719 13.0253 162.512 11.7533C163.766 10.8609 165.163 10.3165 166.681 10.1019C167.372 10.005 168.074 9.91867 168.77 9.92914C170.905 9.96578 172.785 10.6698 174.313 12.2009C174.35 12.2398 174.39 12.2758 174.456 12.3358L174.459 12.3383L174.535 12.4076ZM171.693 29.0739C173.012 28.4903 173.873 27.4539 174.436 26.1557L174.433 26.1584C174.975 24.9126 175.145 23.5961 175.171 21.9394C175.162 21.8453 175.154 21.7291 175.144 21.5971V21.5968L175.144 21.5953V21.595L175.144 21.5935V21.5933L175.144 21.5917C175.116 21.2252 175.08 20.7374 175.001 20.2566C174.771 18.8538 174.279 17.5609 173.284 16.4983C171.604 14.7055 168.856 14.4255 166.862 15.8623C165.831 16.6056 165.179 17.6263 164.781 18.8145C164.166 20.6492 164.119 22.5257 164.459 24.4153C164.656 25.5067 165.043 26.5248 165.705 27.4277C167.111 29.3409 169.547 30.0213 171.693 29.0739ZM47.1043 26.5145C48.4993 21.1466 49.8943 15.7762 51.2945 10.3847V10.3821L52.7614 10.341C54.1368 10.3024 55.5123 10.2637 56.9319 10.2251L56.5132 11.538C54.1131 19.0646 51.7264 26.5491 49.342 34.0337H44.1548C42.8098 29.0047 41.4649 23.9835 40.12 18.9623L40.119 18.9587C40.0876 18.9613 40.0536 18.9639 40.0196 18.9639L39.0647 22.5641C38.0376 26.436 37.0102 30.3094 35.9813 34.1934H30.7992L30.1469 32.147C27.8409 24.9132 25.5321 17.6708 23.2146 10.3978H29.153C30.548 15.7709 31.9429 21.1414 33.3379 26.5119C33.3492 26.5128 33.3606 26.5139 33.3719 26.5151C33.3946 26.5174 33.4173 26.5197 33.44 26.5197C34.1096 23.8438 34.7799 21.1673 35.4508 18.4881L35.4608 18.4483C36.1318 15.769 36.8034 13.087 37.4757 10.4004H42.9665C43.5591 12.7682 44.1516 15.1339 44.7439 17.4987L44.754 17.539L44.7615 17.5692L44.7619 17.5709L44.7623 17.5725C45.5086 20.5521 46.2545 23.5303 46.9996 26.5093C47.0337 26.5119 47.0703 26.5145 47.1043 26.5145ZM78.6674 12.9976L78.6628 13.0153C78.4337 13.9042 78.2049 14.7919 77.9767 15.6789C77.8247 16.2716 77.6738 16.8643 77.5229 17.4569L77.5221 17.46L77.5221 17.4602L77.522 17.4604L77.5219 17.4607L77.5219 17.4609C77.2107 18.683 76.8997 19.9047 76.5791 21.1253C76.4748 21.5218 76.3727 21.919 76.2705 22.3164L76.2699 22.3184L76.2698 22.3188C75.9082 23.7247 75.5463 25.1318 75.0874 26.5167C74.4146 23.8047 73.7418 21.092 73.0691 18.3794L73.0574 18.3325C72.3888 15.6366 71.7202 12.9408 71.0516 10.2456H65.5634C64.26 15.6972 62.9645 21.1227 61.669 26.5507C61.635 26.5533 61.6036 26.556 61.5696 26.5612C61.0288 25.0187 60.4886 23.4755 59.9485 21.9324L59.9415 21.9125C59.4044 20.3779 58.8673 18.8434 58.3295 17.3094H58.23C58.1809 17.4329 58.129 17.5557 58.0771 17.6785L58.077 17.6787L58.077 17.6788L58.077 17.6789L58.077 17.6789L58.0769 17.679L58.0769 17.6791L58.0769 17.6791L58.0769 17.6792C57.9628 17.949 57.8486 18.219 57.7642 18.4976C57.4676 19.4883 57.177 20.4811 56.8864 21.4739L56.8858 21.4761L56.8857 21.4763C56.6276 22.3579 56.3696 23.2395 56.1075 24.1193C56.0316 24.3758 56.0342 24.6035 56.1153 24.86C56.805 27.0502 57.4905 29.2432 58.1759 31.4359L58.1763 31.437L58.1766 31.4381L58.1788 31.445C58.4261 32.2363 58.6734 33.0276 58.921 33.8187C58.9518 33.915 58.9925 34.0084 59.0306 34.0959L59.0307 34.0961L59.0563 34.155L59.0701 34.1877H64.2234C65.2634 30.2691 66.2987 26.363 67.333 22.4608L68.267 18.9373C68.2865 18.9373 68.3074 18.9397 68.3277 18.9421L68.3392 18.9434L68.3559 18.9452C69.1087 21.7868 69.8623 24.6276 70.6159 27.4681C71.2115 29.7133 71.8071 31.9584 72.4021 34.2034H77.6862C78.0055 33.5151 85.2342 10.578 85.2421 10.2325H79.3874H79.3795C79.142 11.156 78.9045 12.0775 78.6674 12.9976ZM106.452 15.3409C106.607 14.7324 106.762 14.1244 106.918 13.5171V13.525C107.057 12.9882 107.196 12.4522 107.336 11.9148L107.34 11.9009C107.483 11.3503 107.627 10.7983 107.771 10.243H113.683C113.666 10.3064 113.651 10.3674 113.636 10.4265C113.608 10.5405 113.582 10.6473 113.547 10.7507C112.78 13.1232 112.013 15.4964 111.247 17.8695C110.48 20.2426 109.713 22.6158 108.946 24.9883C108.474 26.4459 108.002 27.9042 107.53 29.3625C107.058 30.8211 106.587 32.2796 106.114 33.7375L106.094 33.8004L106.07 33.8783L106.07 33.879C106.015 34.0534 105.988 34.1412 105.928 34.1851C105.868 34.2294 105.774 34.2288 105.586 34.2275C105.551 34.2272 105.513 34.227 105.47 34.227H101.17C101.1 34.227 101.028 34.2227 100.943 34.2175C100.895 34.2146 100.842 34.2115 100.783 34.2086C99.4351 29.1208 98.0873 24.033 96.7368 18.9452L96.6504 18.9399C95.815 22.0869 94.9806 25.2338 94.1448 28.3863C93.632 30.3202 93.1187 32.2562 92.6043 34.1955H87.4222L87.3087 33.8552L87.3079 33.8527L87.3043 33.8419C87.08 33.1694 86.858 32.5034 86.6397 31.8375C86.4183 31.1641 86.1973 30.4904 85.9763 29.8168L85.9746 29.8115C85.4386 28.1777 84.9026 26.5437 84.3601 24.9124C84.2659 24.6271 84.2606 24.3732 84.3549 24.0853C84.6558 23.1562 84.9522 22.2252 85.2486 21.2941C85.545 20.363 85.8414 19.432 86.1424 18.5029C86.2733 18.0972 86.4565 17.7099 86.713 17.3094L89.9557 26.5664L89.9629 26.5659C89.9942 26.5635 90.0233 26.5612 90.0525 26.5612C90.8043 23.4115 91.557 20.2618 92.3101 17.1105L92.3267 17.0408C92.8684 14.7741 93.4102 12.5066 93.9521 10.2378H99.4351L103.471 26.5062C103.797 25.6779 104.014 24.8233 104.231 23.9698C104.288 23.7472 104.344 23.5247 104.403 23.3028C104.591 22.5897 104.774 21.8756 104.958 21.1617C105.055 20.783 105.153 20.4044 105.251 20.0261C105.528 18.9504 105.805 17.8747 106.08 16.7965C106.204 16.3112 106.328 15.8259 106.452 15.3409ZM20.2022 16.1843C19.4249 13.3263 17.6557 11.4001 14.8134 10.5024C13.8555 10.1988 12.8688 10.0575 11.8664 9.97371C10.2281 9.835 8.62375 9.95539 7.0639 10.4841C4.44932 11.3713 2.6042 13.0594 1.72744 15.7211C1.66654 15.9072 1.623 16.0992 1.57988 16.2893C1.55814 16.3851 1.53652 16.4804 1.51283 16.5743C2.27182 16.836 6.04843 17.6264 6.3939 17.5976C6.41778 17.5461 6.44144 17.494 6.46526 17.4415L6.46528 17.4415L6.46531 17.4414L6.46533 17.4414L6.46536 17.4413L6.46539 17.4412L6.4654 17.4412C6.52507 17.3098 6.5857 17.1762 6.653 17.0454C7.11624 16.1634 7.79933 15.5195 8.75984 15.2186C10.1443 14.7841 11.5262 14.8443 12.8714 15.3677C13.7901 15.7263 14.3973 16.4172 14.5726 17.3961C14.6522 17.8462 14.678 18.3064 14.7037 18.7628C14.7151 18.967 14.7266 19.1705 14.7427 19.372C14.6916 19.396 14.6568 19.4142 14.6314 19.4274C14.5932 19.4473 14.5769 19.4558 14.5595 19.4558C14.3843 19.4636 14.2091 19.4663 14.0339 19.4689L14.0337 19.4689L14.0335 19.4689C13.505 19.4779 12.9764 19.4738 12.4478 19.4697C11.1308 19.4595 9.81443 19.4493 8.50336 19.6416C6.93042 19.8719 5.43601 20.3273 4.07768 21.1701C2.52045 22.1358 1.39768 23.4496 0.869003 25.2293C0.5183 26.4123 0.492128 27.6084 0.722441 28.8149C1.23279 31.5054 2.75077 33.3191 5.38628 34.1487C6.71581 34.5675 8.07675 34.6041 9.44554 34.4052C11.6675 34.0833 13.4891 33.0364 14.9312 31.3248C14.9715 31.2771 14.9965 31.2152 15.0213 31.1537C15.0319 31.1274 15.0424 31.1012 15.0542 31.0761C15.0961 31.1023 15.1406 31.1285 15.1824 31.152C15.3782 32.1072 15.5739 33.0598 15.7696 34.0124L15.7698 34.0133L15.7713 34.0205H20.6262L20.6306 33.951L20.6348 33.8886C20.6427 33.7725 20.6497 33.6688 20.6497 33.5651C20.6497 32.0479 20.65 30.531 20.6503 29.0142V29.0139V29.0136V29.0133V29.013V29.0127C20.6509 25.9799 20.6515 22.9474 20.6497 19.9138C20.6497 18.6549 20.5346 17.4039 20.2022 16.1817V16.1843ZM13.5833 27.6371C12.7197 28.6134 11.61 29.1577 10.338 29.388C9.74129 29.4953 9.14195 29.5555 8.54523 29.3828C7.46171 29.0687 6.78386 28.1109 6.84144 26.9802C6.9121 25.601 7.75484 24.6169 9.14718 24.329C9.53191 24.2479 9.93234 24.2139 10.3275 24.2112C11.2174 24.2025 12.1072 24.2054 12.9971 24.2083C13.442 24.2098 13.8869 24.2112 14.3318 24.2112C14.4036 24.2112 14.4753 24.2183 14.5548 24.226C14.5943 24.2299 14.6357 24.2339 14.6799 24.2374C14.7794 25.5408 14.4365 26.674 13.5859 27.6398L13.5833 27.6371ZM129.826 10.696C132.42 11.6879 133.977 13.5958 134.678 16.2444L134.681 16.2418C134.984 17.3855 135.105 18.5554 135.105 19.7358V33.5781C135.105 33.6804 135.098 33.7841 135.09 33.8997L135.09 33.9008L135.09 33.9028C135.087 33.943 135.084 33.9847 135.081 34.0283H130.237C130.038 33.0521 129.842 32.0942 129.632 31.0735C129.616 31.0906 129.601 31.1066 129.587 31.1215C129.561 31.1487 129.538 31.1726 129.517 31.1943L129.516 31.1952L129.516 31.1956C129.464 31.2491 129.426 31.2893 129.389 31.3326C127.947 33.0494 126.12 34.0885 123.901 34.4051C122.168 34.6538 120.47 34.5281 118.863 33.7692C116.808 32.7956 115.636 31.1389 115.214 28.9404C114.939 27.5141 114.973 26.0877 115.505 24.7111C116.06 23.2664 117.033 22.1593 118.316 21.3113C119.538 20.5026 120.893 20.0184 122.328 19.7462C123.424 19.5395 124.534 19.4636 125.652 19.4688C126.412 19.4723 127.172 19.4712 127.945 19.47H127.945H127.945H127.945H127.946C128.338 19.4694 128.734 19.4688 129.135 19.4688L129.14 19.3616C129.186 18.3604 129.231 17.3878 128.69 16.4957C128.318 15.878 127.764 15.4907 127.099 15.2682C125.958 14.8887 124.785 14.8312 123.615 15.0955C122.425 15.3651 121.571 16.0848 121.045 17.1866C121.022 17.2313 121.002 17.2771 120.982 17.3232C120.97 17.35 120.958 17.3769 120.946 17.4039C120.912 17.4745 120.878 17.5452 120.818 17.6708C119.938 17.4785 119.058 17.287 118.174 17.0945L118.173 17.0942L118.169 17.0934L118.163 17.092L118.155 17.0904C117.433 16.9333 116.708 16.7755 115.978 16.6161C116.101 15.8309 116.353 15.1348 116.701 14.4752C117.808 12.3736 119.564 11.0702 121.81 10.3924C123.288 9.94486 124.798 9.8454 126.34 9.97365C127.536 10.0757 128.706 10.2668 129.826 10.696ZM123.668 29.4822C124.573 29.5031 125.434 29.3121 126.256 28.9404H126.259C128.235 28.0454 129.3 26.3154 129.135 24.2661C129.121 24.2607 129.109 24.2553 129.098 24.2503L129.08 24.2424C129.054 24.2301 129.036 24.2216 129.017 24.2216C128.571 24.2224 128.124 24.2207 127.677 24.2191L127.676 24.2191H127.676C126.579 24.215 125.483 24.211 124.387 24.2426C123.657 24.2635 122.943 24.452 122.312 24.8655C121.44 25.4413 121.074 26.2892 121.174 27.2811C121.294 28.5138 122.422 29.456 123.668 29.4822ZM200.862 21.9212C199.844 21.1046 198.679 20.5655 197.465 20.1205C196.984 19.945 196.499 19.778 196.014 19.6109L196.014 19.6109C195.328 19.3745 194.642 19.138 193.965 18.8774C193.515 18.702 193.068 18.4481 192.704 18.1341C191.686 17.2599 191.859 15.7865 193.018 15.1243C193.487 14.8574 194.005 14.7448 194.533 14.7945C195.926 14.9254 197.085 15.5221 197.993 16.5926C198.042 16.6494 198.091 16.7052 198.146 16.7676L198.151 16.7736L198.152 16.7752L198.263 16.9014C198.846 16.3689 199.425 15.8411 200.004 15.3132L200.008 15.3095L200.026 15.2931C200.598 14.7716 201.17 14.2501 201.746 13.7241C201.737 13.7106 201.729 13.6973 201.72 13.6841C201.702 13.6578 201.686 13.6319 201.669 13.6066L201.621 13.5317C201.55 13.4223 201.485 13.3216 201.414 13.2242C199.587 10.6672 195.837 9.29582 193.298 9.69363C191.003 10.0548 189.16 11.0886 187.891 13.0515C186.203 15.6582 186.276 20.063 190.095 22.1698C190.92 22.6255 191.802 22.9879 192.677 23.3472L192.691 23.3528C193.146 23.5392 193.608 23.7083 194.07 23.8773C194.607 24.0738 195.143 24.2702 195.669 24.4939C196.146 24.6954 196.596 24.9885 197.004 25.3078C197.517 25.7082 197.69 26.284 197.614 26.9305C197.488 28.014 196.889 28.7154 195.85 29.0033C194.261 29.443 192.827 29.1184 191.584 28.0323C190.888 27.4251 190.409 26.6583 190.016 25.8339C189.948 25.6896 189.878 25.5453 189.801 25.3843L189.736 25.2502L188.169 26.1085C187.128 26.6788 186.086 27.2491 185.017 27.8334C185.073 27.9519 185.124 28.0666 185.174 28.1781C185.275 28.4041 185.37 28.6168 185.481 28.8201C187.708 32.9186 192.249 35.0202 196.884 33.9236C200.529 33.0599 202.851 30.1889 202.958 26.5117C203.013 24.6404 202.335 23.1015 200.862 21.9238V21.9212ZM146.335 10.2722V13.9415V13.9441C148.806 10.4606 152.03 9.20699 156.215 10.3612C155.972 11.6188 155.732 12.8558 155.492 14.0886L155.486 14.1216L155.482 14.1421L155.158 15.8075C155.002 15.7441 154.854 15.6766 154.708 15.6106L154.707 15.61L154.707 15.6099C154.398 15.4695 154.104 15.3361 153.794 15.2632C152.009 14.8444 150.421 15.271 149.07 16.5063C148.081 17.4119 147.508 18.5765 147.105 19.8354C146.56 21.5313 146.367 23.2822 146.354 25.0541C146.338 27.0746 146.341 29.0938 146.344 31.1136V31.1139V31.1194C146.345 31.897 146.346 32.6747 146.346 33.4527V34.0154C145.139 34.1102 143.937 34.13 142.727 34.15C141.966 34.1625 141.202 34.1751 140.431 34.2064V10.3062C140.763 10.1963 145.644 10.1649 146.335 10.2722ZM214.424 30.3957L214.427 30.4006L214.427 30.4009C214.427 30.3249 214.426 30.2492 214.426 30.1736L214.426 30.1733L214.426 30.1704C214.426 30.0205 214.425 29.871 214.427 29.7204L214.427 29.7201C214.425 29.8718 214.426 30.0224 214.426 30.1733" fill="#2D2D2D"/>
</svg>
