<svg width="55" height="35" viewBox="0 0 55 35" fill="none" xmlns="http://www.w3.org/2000/svg">
<path d="M22.4672 16.0185C22.4672 16.0185 27.5477 15.6414 27.5477 9.68378C27.5477 3.72579 23.3912 0.818176 18.1262 0.818176H0.801025V34.1123H18.1262C18.1262 34.1123 28.7026 34.4464 28.7026 24.2854C28.7026 24.2855 29.1637 16.0185 22.4672 16.0185ZM16.8791 6.73583H18.1262C18.1262 6.73583 20.4812 6.73583 20.4812 10.1999C20.4812 13.6636 19.0962 14.1658 17.5253 14.1658H8.43471V6.73583H16.8791ZM17.6366 28.1949H8.43471V19.2974H18.1262C18.1262 19.2974 21.6362 19.2514 21.6362 23.8698C21.6362 27.7641 19.0146 28.1654 17.6366 28.1949ZM42.808 9.28918C30.0042 9.28918 30.0155 22.0818 30.0155 22.0818C30.0155 22.0818 29.137 34.8087 42.808 34.8087C42.808 34.8087 54.2004 35.4596 54.2004 25.9553H48.3414C48.3414 25.9553 48.5369 29.5345 43.0034 29.5345C43.0034 29.5345 37.1435 29.9272 37.1435 23.742H54.3958C54.3958 23.7419 56.2835 9.28918 42.808 9.28918ZM37.0791 19.2974C37.0791 19.2974 37.7946 14.1657 42.9382 14.1657C48.0807 14.1657 48.0163 19.2974 48.0163 19.2974H37.0791ZM49.3811 6.87955H35.6448V2.77963H49.3811V6.87955Z" fill="#2D2D2D"/>
</svg>
