<svg width="140" height="35" viewBox="0 0 140 35" fill="none" xmlns="http://www.w3.org/2000/svg">
<path d="M139.234 27.6586C133.426 37.5078 124.225 34.6501 121.46 32.4116C120.284 33.2108 118.221 34.9597 115.472 34.7547C109.615 34.3363 107.523 25.9682 107.523 25.9682C106.655 26.3071 105.741 26.5117 104.811 26.5749C104.811 29.0309 102.678 34.8928 96.9538 34.8175C90.5313 34.7338 89.2217 25.1607 89.2217 25.1607C89.2217 25.1607 88.5815 26.0477 86.1506 26.9305C86.2719 25.0435 86.1841 34.5288 78.4854 34.6668C72.3976 34.7756 70.7533 25.0101 70.7533 25.0101C69.8824 25.7912 68.8043 26.3041 67.6488 26.487C67.7785 24.5707 67.5693 34.6961 59.8664 34.6627C54.6615 34.6417 52.8833 28.646 53.0213 27.8134C53.1971 26.7548 51.264 34.8091 46.2055 34.6836C44.1135 34.6208 42.5654 33.1104 41.6031 31.0978C40.2976 32.5916 38.3981 34.6836 36.2726 34.6836C32.4526 34.6836 30.7706 31.487 31.0551 22.3657C31.0802 21.2821 31.0007 20.8595 29.9254 20.6921C29.2811 20.5833 28.62 20.3825 27.9171 20.2737C27.6911 21.0227 25.7916 34.4367 19.2519 34.6919C17.0595 34.7756 15.8586 32.8761 14.8712 31.466C13.3608 33.466 11.365 34.7547 8.52819 34.7547C3.71654 34.7547 0.44043 30.8635 0.44043 26.0686C0.44043 21.2737 3.71654 17.3825 8.52819 17.3825C9.16641 17.3812 9.79927 17.499 10.3943 17.7298C8.79597 3.17771 12.57 0.905773 15.8712 0.905773C19.0427 0.905773 24.4568 8.26133 16.8377 26.9264C18.5113 32.4911 22.1765 32.1773 23.9297 20.7214C24.2853 18.3909 23.3313 15.2487 24.8167 14.8094C27.5279 14.006 27.8166 16.4118 29.0886 16.8135C30.4317 17.2319 31.2183 17.1943 32.507 17.4662C34.7119 17.8846 35.5739 19.0813 35.3061 21.7214C34.9839 25.0686 34.4191 29.9221 36.1429 30.5079C37.3981 30.9263 39.6491 28.3657 40.0466 26.9556C40.363 26.0104 40.5364 25.0233 40.5612 24.0268C40.5416 22.1821 40.7084 20.3401 41.0591 18.529C41.2223 17.8846 41.4022 17.4537 42.1344 17.4244C42.7369 17.4244 43.8374 17.2277 44.3185 17.6043C44.9629 18.0897 44.8834 18.5834 44.8081 19.8762C44.0591 38.3404 49.8289 29.123 51.5569 21.7423C50.9419 13.3993 51.3645 1.04803 56.5778 0.822093C59.2974 0.713308 60.4982 2.89319 60.6321 4.52079C61.0045 9.12324 58.9125 16.7215 56.1552 21.8386C54.582 32.2987 63.0421 34.3447 64.3936 26.0226C62.1802 24.9682 59.7911 20.7089 61.7325 18.6336C62.8245 17.4704 67.3726 19.144 67.4479 22.7925C69.678 22.1942 69.9584 20.9348 70.0086 21.144C69.3935 12.801 69.9625 1.06058 75.1926 0.834645C77.9122 0.72586 79.113 2.90575 79.2469 4.53334C79.6193 9.13579 77.5273 16.734 74.77 21.8511C73.1968 32.3112 81.6569 34.3572 83.0084 26.0352C81.3682 25.7172 77.908 21.1858 79.9038 18.6461C80.9708 17.2863 85.5021 20.1105 86.0084 22.9264C88.1506 22.3197 88.4435 21.1022 88.4727 21.3072C87.8577 12.9642 88.4267 1.22376 93.6568 0.997823C96.3764 0.889037 97.5772 3.06892 97.7111 4.69652C98.0835 9.29897 95.9915 16.8972 93.2342 22.0143C91.661 32.4744 100.121 34.5204 101.473 26.1983C99.2216 25.8218 96.0333 21.0394 98.5939 18.5917C99.6232 17.6127 103.556 20.1524 104.477 23.0477C105.252 23.0106 106.014 22.829 106.724 22.5122C104.682 12.7173 106.201 0.960169 111.828 0.863936C114.87 0.809544 117.841 2.50826 116.535 11.8261C115.28 20.7172 110.811 24.4494 110.824 24.508C111.083 25.5749 113.38 34.4869 119.167 29.7841C118.829 29.0791 118.572 28.3379 118.401 27.5749C117.443 22.6879 119.326 17.165 124.443 16.278C127.372 15.7675 130.137 17.1943 130.577 20.4118C131.296 25.6795 126.539 29.4954 124.719 30.3238C123.907 29.8636 132.062 35.0936 136.903 24.6126C137.183 24.0143 137.522 24.0645 137.962 24.3741C138.288 24.5749 140.054 26.2444 139.234 27.6586ZM12.0386 24.7757C11.7917 24.0394 11.2855 22.416 11.1097 21.713C10.1265 20.8762 9.43613 20.7172 8.18091 20.7172C5.37342 20.7172 3.72072 23.3113 3.72072 26.1105C3.72072 28.9096 5.51986 31.5037 8.32317 31.5037C10.7541 31.5037 12.6076 29.8301 13.1725 27.5079C12.7373 26.6126 12.344 25.7757 12.0177 24.7757H12.0386ZM15.8042 4.75928C13.8336 4.75928 13.1641 9.46633 13.2938 13.4788C13.4171 16.2362 13.9632 18.9583 14.913 21.5499C15.0427 21.7256 15.0176 21.6126 15.1348 21.7967C18.549 14.2905 17.1306 4.75509 15.7917 4.75509L15.8042 4.75928ZM56.8748 4.90572C54.3268 4.61284 54.3435 15.2319 54.6573 17.6127C55.9794 15.4955 58.2807 5.47893 56.8748 4.90572ZM75.4897 4.90572C72.9416 4.61284 72.9583 15.2319 73.2721 17.6127C74.5859 15.4955 76.8871 5.47475 75.4813 4.90572H75.4897ZM93.958 5.05216C91.41 4.75928 91.4267 15.3784 91.7405 17.7633C93.0626 15.6462 95.3639 5.62956 93.958 5.05216ZM112.129 4.2823C108.159 5.08145 109.083 18.324 109.686 20.6461C114.364 14.2194 114.46 4.04381 112.129 4.2823ZM127.016 20.8302C126.885 20.4421 126.623 20.1118 126.275 19.8958C125.927 19.6798 125.514 19.5915 125.108 19.6461C123.112 19.9181 121.179 22.4034 121.928 26.1816C122.047 26.7357 122.241 27.2707 122.506 27.7715C126.958 24.7799 127.334 22.4285 127.004 20.8302H127.016ZM42.9169 14.5081C42.2013 14.5066 41.5118 14.2391 40.9825 13.7574C40.4532 13.2758 40.122 12.6146 40.0533 11.9023C39.9845 11.19 40.1832 10.4776 40.6106 9.90359C41.0379 9.32963 41.6635 8.93514 42.3656 8.79684C43.0677 8.65855 43.7962 8.78633 44.4093 9.15534C45.0224 9.52436 45.4764 10.1082 45.6829 10.7934C45.8894 11.4785 45.8337 12.216 45.5266 12.8624C45.2196 13.5088 44.683 14.0178 44.0215 14.2905C43.6711 14.4349 43.2958 14.5089 42.9169 14.5081Z" fill="#2D2D2D"/>
</svg>
