<svg width="104" height="35" viewBox="0 0 104 35" fill="none" xmlns="http://www.w3.org/2000/svg">
<path fill-rule="evenodd" clip-rule="evenodd" d="M13.8938 12.8959V16.5005L22.5087 16.4967C22.2444 18.4847 21.5741 19.9403 20.5552 20.9593C19.2987 22.2157 17.3375 23.5985 13.8938 23.5985C8.58466 23.5985 4.43234 19.3198 4.43234 14.0106C4.43234 8.70147 8.58466 4.42273 13.8938 4.42273C16.7591 4.42273 18.8506 5.54892 20.3943 6.99687L22.9378 4.45338C20.785 2.39637 17.9197 0.818176 13.8976 0.818176C6.62725 0.818176 0.513672 6.74022 0.513672 14.0106C0.513672 21.281 6.62725 27.2031 13.8976 27.2031C17.8201 27.2031 20.7812 25.916 23.0987 23.5028C25.4813 21.1201 26.2206 17.7761 26.2206 15.0717C26.2206 14.2673 26.1593 13.5241 26.0405 12.8959H13.8938ZM86.5631 26.6857V1.78709H82.9241V26.6857H86.5631ZM36.1915 27.2069C40.8878 27.2069 44.7145 23.6023 44.7145 18.7107C44.7145 13.7846 40.8878 10.2145 36.1915 10.2145C31.4952 10.2145 27.6685 13.7846 27.6685 18.7107C27.6685 23.6023 31.4952 27.2069 36.1915 27.2069ZM36.1915 13.5624C38.7656 13.5624 40.9835 15.6539 40.9835 18.7107C40.9835 21.733 38.7656 23.8589 36.1915 23.8589C33.6174 23.8589 31.3995 21.7368 31.3995 18.7107C31.3995 15.6539 33.6174 13.5624 36.1915 13.5624ZM54.5783 27.2069C59.2746 27.2069 63.1013 23.6023 63.1013 18.7107C63.1013 13.7846 59.2746 10.2145 54.5783 10.2145C49.882 10.2145 46.0553 13.7884 46.0553 18.7107C46.0553 23.6023 49.882 27.2069 54.5783 27.2069ZM54.5783 13.5624C57.1525 13.5624 59.3703 15.6539 59.3703 18.7107C59.3703 21.733 57.1525 23.8589 54.5783 23.8589C52.0042 23.8589 49.7863 21.7368 49.7863 18.7107C49.7863 15.6539 52.0042 13.5624 54.5783 13.5624ZM80.7219 10.7316V25.9811C80.7219 32.2555 77.0215 34.8182 72.647 34.8182C68.5292 34.8182 66.0508 32.064 65.1161 29.8116L68.3645 28.4594C68.9429 29.8423 70.3602 31.4741 72.6432 31.4741C75.4433 31.4741 77.1786 29.7465 77.1786 26.4944V25.2724H77.0483C76.2133 26.3028 74.6044 27.203 72.5742 27.203C68.3262 27.203 64.4343 23.5027 64.4343 18.7413C64.4343 13.9455 68.3262 10.2145 72.5742 10.2145C74.6006 10.2145 76.2094 11.1147 77.0483 12.1144H77.1786V10.7316H80.7219ZM77.4429 18.7413C77.4429 15.7496 75.4472 13.5624 72.9075 13.5624C70.3334 13.5624 68.1768 15.7496 68.1768 18.7413C68.1768 21.7023 70.3334 23.8589 72.9075 23.8589C75.4472 23.8589 77.4429 21.7023 77.4429 18.7413ZM100.744 21.5069L103.64 23.4375C102.705 24.8203 100.453 27.2029 96.5612 27.2029C91.7347 27.2029 88.1302 23.472 88.1302 18.7068C88.1302 13.6543 91.7654 10.2106 96.1437 10.2106C100.553 10.2106 102.709 13.7194 103.414 15.6155L103.801 16.5808L92.4434 21.2847C93.3129 22.9893 94.6651 23.8589 96.5612 23.8589C98.4612 23.8589 99.7789 22.9242 100.744 21.5069ZM91.8305 18.4501L99.4227 15.2976C99.0051 14.2365 97.7487 13.4972 96.2701 13.4972C94.374 13.4972 91.7347 15.1712 91.8305 18.4501Z" fill="#2D2D2D"/>
</svg>
