<svg width="120" height="21" viewBox="0 0 120 21" fill="none" xmlns="http://www.w3.org/2000/svg">
<path d="M9.10326 2.46298C9.47008 1.71974 10.5299 1.71974 10.8967 2.46298L12.7063 6.12947C12.8519 6.42461 13.1335 6.62918 13.4592 6.67651L17.5054 7.26446C18.3256 7.38364 18.6531 8.39162 18.0596 8.97015L15.1318 11.8241C14.8961 12.0539 14.7885 12.3849 14.8442 12.7092L15.5353 16.7391C15.6754 17.556 14.818 18.179 14.0844 17.7933L10.4653 15.8906C10.174 15.7375 9.82598 15.7375 9.53466 15.8906L5.91562 17.7933C5.18199 18.179 4.32456 17.556 4.46467 16.7391L5.15585 12.7092C5.21148 12.3849 5.10393 12.0539 4.86825 11.8241L1.94038 8.97015C1.34687 8.39162 1.67438 7.38364 2.4946 7.26446L6.54081 6.67651C6.86652 6.62918 7.14808 6.42461 7.29374 6.12947L9.10326 2.46298Z" fill="#2D2D2D"/>
<path d="M34.1033 2.46298C34.4701 1.71974 35.5299 1.71974 35.8967 2.46298L37.7063 6.12947C37.8519 6.42461 38.1335 6.62918 38.4592 6.67651L42.5054 7.26446C43.3256 7.38364 43.6531 8.39162 43.0596 8.97015L40.1318 11.8241C39.8961 12.0539 39.7885 12.3849 39.8442 12.7092L40.5353 16.7391C40.6754 17.556 39.818 18.179 39.0844 17.7933L35.4653 15.8906C35.174 15.7375 34.826 15.7375 34.5347 15.8906L30.9156 17.7933C30.182 18.179 29.3246 17.556 29.4647 16.7391L30.1558 12.7092C30.2115 12.3849 30.1039 12.0539 29.8682 11.8241L26.9404 8.97015C26.3469 8.39162 26.6744 7.38364 27.4946 7.26446L31.5408 6.67651C31.8665 6.62918 32.1481 6.42461 32.2937 6.12947L34.1033 2.46298Z" fill="#2D2D2D"/>
<path d="M59.1033 2.46298C59.4701 1.71974 60.5299 1.71974 60.8967 2.46298L62.7063 6.12947C62.8519 6.42461 63.1335 6.62918 63.4592 6.67651L67.5054 7.26446C68.3256 7.38364 68.6531 8.39162 68.0596 8.97015L65.1318 11.8241C64.8961 12.0539 64.7885 12.3849 64.8442 12.7092L65.5353 16.7391C65.6754 17.556 64.818 18.179 64.0844 17.7933L60.4653 15.8906C60.174 15.7375 59.826 15.7375 59.5347 15.8906L55.9156 17.7933C55.182 18.179 54.3246 17.556 54.4647 16.7391L55.1558 12.7092C55.2115 12.3849 55.1039 12.0539 54.8682 11.8241L51.9404 8.97015C51.3469 8.39162 51.6744 7.38364 52.4946 7.26446L56.5408 6.67651C56.8665 6.62918 57.1481 6.42461 57.2937 6.12947L59.1033 2.46298Z" fill="#2D2D2D"/>
<path d="M84.1033 2.46298C84.4701 1.71974 85.5299 1.71974 85.8967 2.46298L87.7063 6.12947C87.8519 6.42461 88.1335 6.62918 88.4592 6.67651L92.5054 7.26446C93.3256 7.38364 93.6531 8.39162 93.0596 8.97015L90.1318 11.8241C89.8961 12.0539 89.7885 12.3849 89.8442 12.7092L90.5353 16.7391C90.6754 17.556 89.818 18.179 89.0844 17.7933L85.4653 15.8906C85.174 15.7375 84.826 15.7375 84.5347 15.8906L80.9156 17.7933C80.182 18.179 79.3246 17.556 79.4647 16.7391L80.1558 12.7092C80.2115 12.3849 80.1039 12.0539 79.8682 11.8241L76.9404 8.97015C76.3469 8.39162 76.6744 7.38364 77.4946 7.26446L81.5408 6.67651C81.8665 6.62918 82.1481 6.42461 82.2937 6.12947L84.1033 2.46298Z" fill="#2D2D2D"/>
<path d="M109.103 2.46298C109.47 1.71974 110.53 1.71974 110.897 2.46298L112.706 6.12947C112.852 6.42461 113.133 6.62918 113.459 6.67651L117.505 7.26446C118.326 7.38364 118.653 8.39162 118.06 8.97015L115.132 11.8241C114.896 12.0539 114.789 12.3849 114.844 12.7092L115.535 16.7391C115.675 17.556 114.818 18.179 114.084 17.7933L110.465 15.8906C110.174 15.7375 109.826 15.7375 109.535 15.8906L105.916 17.7933C105.182 18.179 104.325 17.556 104.465 16.7391L105.156 12.7092C105.211 12.3849 105.104 12.0539 104.868 11.8241L101.94 8.97015C101.347 8.39162 101.674 7.38364 102.495 7.26446L106.541 6.67651C106.867 6.62918 107.148 6.42461 107.294 6.12947L109.103 2.46298Z" fill="#2D2D2D"/>
</svg>
