<svg width="232" height="37" viewBox="0 0 232 37" fill="none" xmlns="http://www.w3.org/2000/svg">
<path d="M164.998 11.7113C163.159 11.7113 161.395 12.4421 160.094 13.7428C158.793 15.0436 158.062 16.8078 158.062 18.6473C158.062 20.4869 158.793 22.2511 160.094 23.5518C161.395 24.8526 163.159 25.5833 164.998 25.5833C166.838 25.5833 168.602 24.8526 169.903 23.5518C171.204 22.2511 171.934 20.4869 171.934 18.6473C171.934 16.8078 171.204 15.0436 169.903 13.7428C168.602 12.4421 166.838 11.7113 164.998 11.7113ZM164.998 23.1518C163.803 23.1518 162.657 22.6771 161.812 21.832C160.967 20.987 160.492 19.8409 160.492 18.6458C160.492 17.4508 160.967 16.3046 161.812 15.4596C162.657 14.6146 163.803 14.1398 164.998 14.1398C166.193 14.1398 167.34 14.6146 168.185 15.4596C169.03 16.3046 169.504 17.4508 169.504 18.6458C169.504 19.8409 169.03 20.987 168.185 21.832C167.34 22.6771 166.193 23.1518 164.998 23.1518Z" fill="black"/>
<path d="M172.209 13.0733C173.102 13.0733 173.826 12.3494 173.826 11.4563C173.826 10.5633 173.102 9.83932 172.209 9.83932C171.316 9.83932 170.592 10.5633 170.592 11.4563C170.592 12.3494 171.316 13.0733 172.209 13.0733Z" fill="black"/>
<path d="M177.799 9.81232C177.452 8.91559 176.922 8.10124 176.241 7.42141C175.561 6.74157 174.747 6.21123 173.85 5.86432C172.8 5.47036 171.692 5.25733 170.571 5.23432C169.126 5.17132 168.669 5.15332 165.006 5.15332C161.343 5.15332 160.873 5.15332 159.441 5.23432C158.321 5.25616 157.213 5.46922 156.165 5.86432C155.268 6.21082 154.453 6.74103 153.773 7.42091C153.093 8.1008 152.562 8.91536 152.215 9.81232C151.821 10.8617 151.609 11.9706 151.587 13.0913C151.522 14.5343 151.503 14.9918 151.503 18.6563C151.503 22.3193 151.503 22.7858 151.587 24.2213C151.609 25.3433 151.821 26.4503 152.215 27.5018C152.563 28.3985 153.094 29.2127 153.775 29.8925C154.455 30.5723 155.27 31.1027 156.166 31.4498C157.213 31.8596 158.321 32.0879 159.444 32.1248C160.888 32.1878 161.346 32.2073 165.009 32.2073C168.672 32.2073 169.141 32.2073 170.574 32.1248C171.695 32.102 172.803 31.8895 173.853 31.4963C174.75 31.1486 175.564 30.6178 176.244 29.9378C176.924 29.2578 177.455 28.4435 177.802 27.5468C178.197 26.4968 178.408 25.3898 178.431 24.2678C178.495 22.8248 178.515 22.3673 178.515 18.7028C178.515 15.0383 178.515 14.5733 178.431 13.1378C178.413 12.0012 178.2 10.8762 177.799 9.81232ZM175.972 24.1103C175.963 24.9748 175.805 25.8312 175.506 26.6423C175.281 27.2256 174.936 27.7553 174.494 28.1973C174.051 28.6394 173.521 28.9839 172.938 29.2088C172.136 29.5065 171.288 29.6643 170.433 29.6753C169.008 29.7413 168.606 29.7578 164.952 29.7578C161.295 29.7578 160.921 29.7578 159.469 29.6753C158.614 29.6649 157.767 29.507 156.966 29.2088C156.38 28.9853 155.848 28.6414 155.404 28.1993C154.96 27.7572 154.614 27.2267 154.387 26.6423C154.093 25.8399 153.935 24.9936 153.921 24.1388C153.856 22.7138 153.841 22.3118 153.841 18.6578C153.841 15.0023 153.841 14.6288 153.921 13.1753C153.931 12.3114 154.088 11.4554 154.387 10.6448C154.845 9.46132 155.782 8.52982 156.966 8.07682C157.768 7.78003 158.614 7.62227 159.469 7.61032C160.896 7.54582 161.296 7.52782 164.952 7.52782C168.607 7.52782 168.982 7.52782 170.433 7.61032C171.289 7.62061 172.136 7.77843 172.938 8.07682C173.521 8.30223 174.051 8.64712 174.493 9.08937C174.936 9.53161 175.281 10.0614 175.506 10.6448C175.801 11.4472 175.958 12.2936 175.972 13.1483C176.037 14.5748 176.053 14.9753 176.053 18.6308C176.053 22.2848 176.053 22.6778 175.989 24.1118H175.972V24.1103Z" fill="black"/>
<path d="M207.705 9.24268C208.588 9.24268 209.383 9.31918 210.112 9.47518C210.837 9.62968 211.455 9.88468 211.976 10.2372C212.491 10.5897 212.893 11.0577 213.182 11.6457C213.463 12.2262 213.602 12.9522 213.602 13.8102C213.602 14.7402 213.392 15.5172 212.971 16.1367C212.547 16.7577 211.921 17.2662 211.087 17.6592C212.222 17.9877 213.064 18.5622 213.622 19.3782C214.183 20.2017 214.458 21.1872 214.458 22.3422C214.458 23.2797 214.279 24.0852 213.92 24.7617C213.575 25.4281 213.074 26.0013 212.459 26.4327C211.823 26.8758 211.112 27.201 210.361 27.3927C209.573 27.5995 208.762 27.7033 207.948 27.7017H199V9.24268H207.705ZM207.178 16.7007C207.898 16.7007 208.495 16.5297 208.966 16.1832C209.434 15.8412 209.661 15.2772 209.661 14.5047C209.661 14.0757 209.584 13.7217 209.434 13.4442C209.288 13.1772 209.072 12.9552 208.808 12.8022C208.533 12.6389 208.229 12.5294 207.913 12.4797C207.568 12.4154 207.218 12.3847 206.867 12.3882H203.065V16.7007H207.178ZM207.405 24.5592C207.805 24.5592 208.186 24.5247 208.545 24.4437C208.906 24.3657 209.227 24.2397 209.5 24.0522C209.773 23.8722 209.998 23.6277 210.16 23.3157C210.323 23.0067 210.403 22.6032 210.403 22.1187C210.403 21.1677 210.135 20.4912 209.604 20.0817C209.071 19.6767 208.357 19.4757 207.483 19.4757H203.065V24.5607H207.405V24.5592ZM220.252 24.4977C220.802 25.0347 221.596 25.3047 222.628 25.3047C223.368 25.3047 224.007 25.1172 224.545 24.7452C225.076 24.3717 225.4 23.9727 225.525 23.5602H228.757C228.238 25.1682 227.451 26.3172 226.374 27.0087C225.31 27.7032 224.016 28.0482 222.504 28.0482C221.451 28.0482 220.503 27.8787 219.653 27.5427C218.839 27.2253 218.102 26.7351 217.495 26.1057C216.898 25.4616 216.436 24.7041 216.138 23.8782C215.809 22.9648 215.647 22.0002 215.657 21.0297C215.657 20.0307 215.824 19.0962 216.151 18.2337C216.461 17.3999 216.938 16.638 217.552 15.9942C218.16 15.3642 218.88 14.8677 219.718 14.5032C220.6 14.1323 221.549 13.9475 222.505 13.9602C223.636 13.9602 224.625 14.1792 225.473 14.6202C226.297 15.0411 227.011 15.6482 227.558 16.3932C228.103 17.1327 228.492 17.9802 228.733 18.9297C228.975 19.8777 229.059 20.8677 228.99 21.9042H219.343C219.344 22.9602 219.7 23.9607 220.252 24.4977ZM224.47 17.4762C224.033 16.9932 223.295 16.7322 222.392 16.7322C221.806 16.7322 221.322 16.8297 220.931 17.0307C220.575 17.2108 220.259 17.4613 220.001 17.7672C219.776 18.0449 219.608 18.3653 219.51 18.7092C219.423 18.996 219.367 19.2911 219.343 19.5897H225.316C225.229 18.6537 224.908 17.9622 224.47 17.4762ZM218.593 10.4817H226.076V12.3042H218.593V10.4817Z" fill="black"/>
<path d="M128.99 11.116C127.681 8.84759 125.797 6.96431 123.528 5.656C121.229 4.3165 118.719 3.646 116 3.646C113.281 3.646 110.771 4.3165 108.47 5.656C106.17 6.9955 104.349 8.8165 103.01 11.116C101.67 13.4155 101 15.9265 101 18.646C101 21.3655 101.669 23.8765 103.01 26.176C104.318 28.4448 106.202 30.3281 108.471 31.636C110.771 32.9755 113.281 33.646 116 33.646C118.719 33.646 121.229 32.9755 123.53 31.636C125.799 30.3277 127.683 28.4444 128.991 26.176C130.331 23.8765 131 21.3655 131 18.646C131 15.9265 130.331 13.4155 128.99 11.116ZM116 6.136C119 6.136 121.658 7.096 123.98 9.0145C122.6 10.7755 120.551 12.2245 117.83 13.3645C116.327 10.645 114.698 8.374 112.938 6.5545C113.936 6.27877 114.965 6.13801 116 6.136ZM106.265 10.846C107.362 9.45314 108.75 8.31665 110.331 7.516C112.149 9.3175 113.819 11.566 115.341 14.266C112.341 15.166 109.17 15.616 105.83 15.616C104.97 15.616 104.321 15.5965 103.88 15.556C104.34 13.8376 105.152 12.2336 106.265 10.846ZM103.49 18.646C103.49 18.565 103.495 18.466 103.505 18.346C103.516 18.226 103.52 18.127 103.52 18.046C103.901 18.067 104.482 18.076 105.262 18.076C109.26 18.076 112.98 17.5255 116.42 16.426C116.7 16.9855 116.991 17.6155 117.29 18.316C115.31 18.7555 113.279 19.825 111.198 21.526C109.118 23.227 107.6 25.0165 106.64 26.896C104.54 24.5155 103.49 21.766 103.49 18.646ZM116 31.156C113.159 31.156 110.609 30.2755 108.349 28.5175C109.25 26.737 110.635 25.0345 112.505 23.416C114.374 21.796 116.229 20.7865 118.07 20.386C119.231 23.5945 120.016 26.9267 120.41 30.316C119.004 30.8653 117.509 31.1501 116 31.156ZM126.62 25.216C125.638 26.7978 124.316 28.1409 122.75 29.1475C122.39 26.0275 121.7 22.987 120.681 20.026C122.08 19.927 123.329 19.876 124.431 19.876C125.63 19.876 126.961 19.927 128.42 20.026C128.224 21.8707 127.608 23.6461 126.62 25.216ZM124.76 17.716C123.02 17.716 121.41 17.7865 119.93 17.926C119.616 17.1052 119.276 16.2947 118.91 15.496C122.009 14.137 124.208 12.487 125.509 10.546C127.309 12.667 128.289 15.0865 128.448 17.806C127.23 17.746 126 17.716 124.76 17.716Z" fill="black"/>
<path d="M79 5.146H55C54.6022 5.146 54.2206 5.30403 53.9393 5.58534C53.658 5.86664 53.5 6.24817 53.5 6.646V30.646C53.5 31.0438 53.658 31.4254 53.9393 31.7067C54.2206 31.988 54.6022 32.146 55 32.146H67.9225V21.706H64.4155V17.6185H67.9225V14.6185C67.9225 11.131 70.0525 9.2305 73.1725 9.2305C74.221 9.2275 75.271 9.2815 76.315 9.391V13.021H74.1625C72.4705 13.021 72.1405 13.828 72.1405 15.0085V17.611H76.186L75.661 21.6985H72.139V32.146H79C79.3978 32.146 79.7794 31.988 80.0607 31.7067C80.342 31.4254 80.5 31.0438 80.5 30.646V6.646C80.5 6.24817 80.342 5.86664 80.0607 5.58534C79.7794 5.30403 79.3978 5.146 79 5.146Z" fill="black"/>
<path d="M14.3895 17.1025C13.5765 17.1025 12.936 17.815 12.936 18.685C12.936 19.552 13.5915 20.2675 14.3895 20.2675C15.201 20.2675 15.8415 19.552 15.8415 18.685C15.858 17.8135 15.201 17.1025 14.3895 17.1025ZM19.5915 17.1025C18.7785 17.1025 18.138 17.815 18.138 18.685C18.138 19.552 18.7935 20.2675 19.5915 20.2675C20.403 20.2675 21.0435 19.552 21.0435 18.685C21.042 17.8135 20.403 17.1025 19.5915 17.1025Z" fill="black"/>
<path d="M26.517 5.146H7.42051C7.036 5.14698 6.65545 5.22369 6.30058 5.37174C5.94572 5.5198 5.62349 5.7363 5.35229 6.00889C5.0811 6.28147 4.86625 6.60481 4.72002 6.96043C4.57378 7.31605 4.49902 7.69699 4.50001 8.0815V27.3475C4.50001 28.972 5.81101 30.283 7.42051 30.283H23.58L22.8225 27.6445L24.648 29.341L26.3715 30.937L29.4375 33.646V8.0815C29.4385 7.69699 29.3637 7.31605 29.2175 6.96043C29.0713 6.60481 28.8564 6.28147 28.5852 6.00889C28.314 5.7363 27.9918 5.5198 27.6369 5.37174C27.2821 5.22369 26.9015 5.14698 26.517 5.146ZM21.015 23.7565C21.015 23.7565 20.502 23.1445 20.076 22.6C21.942 22.072 22.6545 20.905 22.6545 20.905C22.0695 21.289 21.5145 21.562 21.015 21.748C19.1965 22.5091 17.194 22.7167 15.258 22.345C14.5427 22.2045 13.8417 21.9986 13.164 21.73C12.8066 21.5942 12.4592 21.4333 12.1245 21.2485C12.081 21.217 12.039 21.205 11.997 21.1765C11.9745 21.1658 11.9546 21.1505 11.9385 21.1315C11.682 20.9905 11.5395 20.8915 11.5395 20.8915C11.5395 20.8915 12.2235 22.0315 14.034 22.573C13.6065 23.113 13.0785 23.7565 13.0785 23.7565C9.93001 23.656 8.73451 21.5905 8.73451 21.5905C8.73451 17.002 10.7865 13.2835 10.7865 13.2835C12.8385 11.743 14.79 11.7865 14.79 11.7865L14.9325 11.9575C12.3675 12.7 11.184 13.825 11.184 13.825C11.184 13.825 11.499 13.654 12.0255 13.4125C13.5495 12.7435 14.76 12.5575 15.2595 12.514C15.345 12.5005 15.417 12.4855 15.5025 12.4855C17.9733 12.1525 20.4857 12.6221 22.6695 13.825C22.6695 13.825 21.543 12.757 19.1205 12.016L19.32 11.788C19.32 11.788 21.273 11.7445 23.3235 13.285C23.3235 13.285 25.3755 17.0035 25.3755 21.592C25.3755 21.592 24.165 23.656 21.015 23.7565Z" fill="black"/>
</svg>
